<mxfile host="app.diagrams.net" modified="2023-04-27T19:59:41.649Z" agent="Mozilla/5.0 (Windows NT 10.0; Win64; x64) AppleWebKit/537.36 (KHTML, like Gecko) Chrome/112.0.0.0 Safari/537.36" etag="AHLGzmzNRvvREouepl6F" version="21.2.2" type="device">
  <diagram name="PÃ¡gina-1" id="ubnrEpy5N49641QxuksE">
    <mxGraphModel dx="954" dy="584" grid="1" gridSize="10" guides="1" tooltips="1" connect="1" arrows="1" fold="1" page="1" pageScale="1" pageWidth="827" pageHeight="1169" math="0" shadow="0">
      <root>
        <mxCell id="0" />
        <mxCell id="1" parent="0" />
        <mxCell id="KtaubY57yp2v8rIZsT4Z-2" value="TRABAJADOR" style="rounded=0;whiteSpace=wrap;html=1;" vertex="1" parent="1">
          <mxGeometry x="414" y="290" width="120" height="60" as="geometry" />
        </mxCell>
        <mxCell id="KtaubY57yp2v8rIZsT4Z-4" value="Descripcion" style="ellipse;whiteSpace=wrap;html=1;" vertex="1" parent="1">
          <mxGeometry x="880" y="305" width="75" height="35" as="geometry" />
        </mxCell>
        <mxCell id="KtaubY57yp2v8rIZsT4Z-6" value="Nombre" style="ellipse;whiteSpace=wrap;html=1;" vertex="1" parent="1">
          <mxGeometry x="310" y="300" width="60" height="40" as="geometry" />
        </mxCell>
        <mxCell id="KtaubY57yp2v8rIZsT4Z-7" value="Apellido" style="ellipse;whiteSpace=wrap;html=1;" vertex="1" parent="1">
          <mxGeometry x="340" y="230" width="60" height="40" as="geometry" />
        </mxCell>
        <mxCell id="KtaubY57yp2v8rIZsT4Z-8" value="&lt;u&gt;Tipo Doc&lt;/u&gt;" style="ellipse;whiteSpace=wrap;html=1;" vertex="1" parent="1">
          <mxGeometry x="410" y="190" width="60" height="40" as="geometry" />
        </mxCell>
        <mxCell id="KtaubY57yp2v8rIZsT4Z-9" value="&lt;u&gt;Nro Doc&lt;/u&gt;" style="ellipse;whiteSpace=wrap;html=1;" vertex="1" parent="1">
          <mxGeometry x="490" y="190" width="60" height="40" as="geometry" />
        </mxCell>
        <mxCell id="KtaubY57yp2v8rIZsT4Z-10" value="Domicilio" style="ellipse;whiteSpace=wrap;html=1;" vertex="1" parent="1">
          <mxGeometry x="290" y="360" width="70" height="40" as="geometry" />
        </mxCell>
        <mxCell id="KtaubY57yp2v8rIZsT4Z-11" value="Fecha_ingreso" style="ellipse;whiteSpace=wrap;html=1;" vertex="1" parent="1">
          <mxGeometry x="285" y="420" width="80" height="50" as="geometry" />
        </mxCell>
        <mxCell id="KtaubY57yp2v8rIZsT4Z-12" value="ART" style="rounded=0;whiteSpace=wrap;html=1;" vertex="1" parent="1">
          <mxGeometry x="720" y="290" width="120" height="60" as="geometry" />
        </mxCell>
        <mxCell id="KtaubY57yp2v8rIZsT4Z-13" value="" style="rhombus;whiteSpace=wrap;html=1;" vertex="1" parent="1">
          <mxGeometry x="605" y="295" width="50" height="50" as="geometry" />
        </mxCell>
        <mxCell id="KtaubY57yp2v8rIZsT4Z-16" value="" style="endArrow=none;html=1;rounded=0;exitX=0;exitY=0.5;exitDx=0;exitDy=0;" edge="1" parent="1" source="KtaubY57yp2v8rIZsT4Z-13" target="KtaubY57yp2v8rIZsT4Z-2">
          <mxGeometry width="50" height="50" relative="1" as="geometry">
            <mxPoint x="700" y="330" as="sourcePoint" />
            <mxPoint x="750" y="280" as="targetPoint" />
          </mxGeometry>
        </mxCell>
        <mxCell id="KtaubY57yp2v8rIZsT4Z-17" value="" style="endArrow=none;html=1;rounded=0;exitX=1;exitY=0.5;exitDx=0;exitDy=0;" edge="1" parent="1" source="KtaubY57yp2v8rIZsT4Z-13" target="KtaubY57yp2v8rIZsT4Z-12">
          <mxGeometry width="50" height="50" relative="1" as="geometry">
            <mxPoint x="700" y="330" as="sourcePoint" />
            <mxPoint x="750" y="280" as="targetPoint" />
          </mxGeometry>
        </mxCell>
        <mxCell id="KtaubY57yp2v8rIZsT4Z-18" value="N" style="text;html=1;align=center;verticalAlign=middle;resizable=0;points=[];autosize=1;strokeColor=none;fillColor=none;" vertex="1" parent="1">
          <mxGeometry x="534" y="290" width="30" height="30" as="geometry" />
        </mxCell>
        <mxCell id="KtaubY57yp2v8rIZsT4Z-19" value="1" style="text;html=1;align=center;verticalAlign=middle;resizable=0;points=[];autosize=1;strokeColor=none;fillColor=none;" vertex="1" parent="1">
          <mxGeometry x="695" y="288" width="30" height="30" as="geometry" />
        </mxCell>
        <mxCell id="KtaubY57yp2v8rIZsT4Z-20" value="" style="endArrow=none;html=1;rounded=0;entryX=0.608;entryY=-0.033;entryDx=0;entryDy=0;entryPerimeter=0;" edge="1" parent="1" source="KtaubY57yp2v8rIZsT4Z-9" target="KtaubY57yp2v8rIZsT4Z-2">
          <mxGeometry width="50" height="50" relative="1" as="geometry">
            <mxPoint x="700" y="330" as="sourcePoint" />
            <mxPoint x="750" y="280" as="targetPoint" />
          </mxGeometry>
        </mxCell>
        <mxCell id="KtaubY57yp2v8rIZsT4Z-21" value="" style="endArrow=none;html=1;rounded=0;exitX=0.5;exitY=1;exitDx=0;exitDy=0;" edge="1" parent="1" source="KtaubY57yp2v8rIZsT4Z-8" target="KtaubY57yp2v8rIZsT4Z-2">
          <mxGeometry width="50" height="50" relative="1" as="geometry">
            <mxPoint x="700" y="330" as="sourcePoint" />
            <mxPoint x="750" y="280" as="targetPoint" />
          </mxGeometry>
        </mxCell>
        <mxCell id="KtaubY57yp2v8rIZsT4Z-22" value="" style="endArrow=none;html=1;rounded=0;" edge="1" parent="1" source="KtaubY57yp2v8rIZsT4Z-7" target="KtaubY57yp2v8rIZsT4Z-2">
          <mxGeometry width="50" height="50" relative="1" as="geometry">
            <mxPoint x="700" y="330" as="sourcePoint" />
            <mxPoint x="750" y="280" as="targetPoint" />
          </mxGeometry>
        </mxCell>
        <mxCell id="KtaubY57yp2v8rIZsT4Z-23" value="" style="endArrow=none;html=1;rounded=0;" edge="1" parent="1" source="KtaubY57yp2v8rIZsT4Z-6" target="KtaubY57yp2v8rIZsT4Z-2">
          <mxGeometry width="50" height="50" relative="1" as="geometry">
            <mxPoint x="700" y="330" as="sourcePoint" />
            <mxPoint x="750" y="280" as="targetPoint" />
          </mxGeometry>
        </mxCell>
        <mxCell id="KtaubY57yp2v8rIZsT4Z-24" value="" style="endArrow=none;html=1;rounded=0;exitX=1;exitY=0.5;exitDx=0;exitDy=0;entryX=0;entryY=0.5;entryDx=0;entryDy=0;" edge="1" parent="1" source="KtaubY57yp2v8rIZsT4Z-10" target="KtaubY57yp2v8rIZsT4Z-2">
          <mxGeometry width="50" height="50" relative="1" as="geometry">
            <mxPoint x="700" y="330" as="sourcePoint" />
            <mxPoint x="420" y="330" as="targetPoint" />
          </mxGeometry>
        </mxCell>
        <mxCell id="KtaubY57yp2v8rIZsT4Z-25" value="" style="endArrow=none;html=1;rounded=0;entryX=0;entryY=0.5;entryDx=0;entryDy=0;" edge="1" parent="1" source="KtaubY57yp2v8rIZsT4Z-11" target="KtaubY57yp2v8rIZsT4Z-2">
          <mxGeometry width="50" height="50" relative="1" as="geometry">
            <mxPoint x="460" y="330" as="sourcePoint" />
            <mxPoint x="510" y="280" as="targetPoint" />
          </mxGeometry>
        </mxCell>
        <mxCell id="KtaubY57yp2v8rIZsT4Z-26" value="EMPRESA" style="shape=ext;margin=3;double=1;whiteSpace=wrap;html=1;align=center;" vertex="1" parent="1">
          <mxGeometry x="414" y="600" width="120" height="60" as="geometry" />
        </mxCell>
        <mxCell id="KtaubY57yp2v8rIZsT4Z-27" value="Trabaja en" style="shape=rhombus;double=1;perimeter=rhombusPerimeter;whiteSpace=wrap;html=1;align=center;" vertex="1" parent="1">
          <mxGeometry x="414" y="440" width="120" height="60" as="geometry" />
        </mxCell>
        <mxCell id="KtaubY57yp2v8rIZsT4Z-28" value="" style="endArrow=none;html=1;rounded=0;exitX=0.5;exitY=1;exitDx=0;exitDy=0;entryX=0.5;entryY=0;entryDx=0;entryDy=0;" edge="1" parent="1" source="KtaubY57yp2v8rIZsT4Z-2" target="KtaubY57yp2v8rIZsT4Z-27">
          <mxGeometry relative="1" as="geometry">
            <mxPoint x="600" y="540" as="sourcePoint" />
            <mxPoint x="760" y="540" as="targetPoint" />
          </mxGeometry>
        </mxCell>
        <mxCell id="KtaubY57yp2v8rIZsT4Z-29" value="" style="endArrow=none;html=1;rounded=0;exitX=0.5;exitY=1;exitDx=0;exitDy=0;" edge="1" parent="1" source="KtaubY57yp2v8rIZsT4Z-27" target="KtaubY57yp2v8rIZsT4Z-26">
          <mxGeometry relative="1" as="geometry">
            <mxPoint x="600" y="540" as="sourcePoint" />
            <mxPoint x="760" y="540" as="targetPoint" />
          </mxGeometry>
        </mxCell>
        <mxCell id="KtaubY57yp2v8rIZsT4Z-30" value="Tiene" style="text;html=1;align=center;verticalAlign=middle;resizable=0;points=[];autosize=1;strokeColor=none;fillColor=none;" vertex="1" parent="1">
          <mxGeometry x="605" y="270" width="50" height="30" as="geometry" />
        </mxCell>
        <mxCell id="KtaubY57yp2v8rIZsT4Z-31" value="Id" style="ellipse;whiteSpace=wrap;html=1;align=center;fontStyle=4;" vertex="1" parent="1">
          <mxGeometry x="810" y="220" width="100" height="40" as="geometry" />
        </mxCell>
      </root>
    </mxGraphModel>
  </diagram>
</mxfile>
